<?xml version="1.0" standalone="no"?>
<!DOCTYPE svg PUBLIC "-//W3C//DTD SVG 20010904//EN"
 "http://www.w3.org/TR/2001/REC-SVG-20010904/DTD/svg10.dtd">
<svg version="1.0" xmlns="http://www.w3.org/2000/svg"
 width="240.000000pt" height="240.000000pt" viewBox="0 0 240.000000 240.000000"
 preserveAspectRatio="xMidYMid meet">
<metadata>
Created by potrace 1.11, written by Peter Selinger 2001-2013
</metadata>
<g transform="translate(0.000000,240.000000) scale(0.100000,-0.100000)"
fill="#000000" stroke="none">
<path d="M0 1200 l0 -1200 1200 0 1200 0 0 1200 0 1200 -1200 0 -1200 0 0
-1200z m858 728 c6 -13 81 -185 167 -383 85 -198 160 -371 166 -385 11 -24 12
-24 20 -5 5 11 49 115 100 230 50 116 122 284 161 375 39 91 75 171 80 178 6
6 21 12 33 12 18 0 28 -14 55 -77 18 -43 72 -168 120 -278 48 -110 127 -290
175 -400 48 -110 114 -261 145 -335 31 -74 83 -192 114 -262 31 -70 56 -132
56 -138 0 -5 -10 -10 -23 -10 -26 0 -10 -32 -259 540 -192 440 -349 802 -366
843 -8 20 -18 37 -21 37 -3 0 -46 -94 -96 -208 -49 -114 -126 -292 -172 -397
l-83 -190 109 -250 c60 -137 121 -276 135 -308 22 -48 24 -59 11 -63 -8 -3
-19 -4 -25 -2 -11 3 -84 160 -195 421 -32 76 -61 134 -65 130 -4 -5 -42 -91
-85 -193 -139 -328 -150 -350 -181 -350 -17 0 -24 4 -21 13 32 73 221 505 240
547 l24 55 -79 180 c-233 530 -270 615 -274 615 -4 0 -27 -51 -139 -310 -51
-118 -120 -276 -153 -350 -33 -74 -100 -229 -150 -345 -178 -412 -177 -410
-206 -413 -14 -2 -26 1 -26 6 0 5 14 40 31 78 18 38 82 186 144 329 62 143
168 386 235 540 68 154 145 331 172 394 27 62 53 122 59 132 14 26 53 24 67
-3z"/>
</g>
</svg>
