<svg fill="#1ee6fe" 
id="Capa_1" enable-background="new 0 0 512 512" height="512" viewBox="0 0 512 512" width="512" xmlns="http://www.w3.org/2000/svg"><g><path d="m121 15c0-8.401-6.599-15-15-15s-15 6.599-15 15v15h30z"/><path d="m211 15c0-8.401-6.599-15-15-15s-15 6.599-15 15v15h30z"/><path d="m301 15c0-8.401-6.599-15-15-15s-15 6.599-15 15v15h30z"/><path d="m181 346v30c0 24.814 20.186 45 45 45h15v-90h-45c-8.262 0-15 6.724-15 15z"/><circle cx="136" cy="196" r="45"/><path d="m15 512h257.8c-16.199-15.601-26.7-37.601-30.3-61h-16.5c-41.4 0-75-33.6-75-75v-30c0-24.901 20.099-45 45-45h45v-15c0-24.901 20.099-45 45-45h105v-196c0-8.401-6.599-15-15-15h-75v30c0 8.399-6.599 15-15 15s-15-6.601-15-15v-30h-60v30c0 8.399-6.599 15-15 15s-15-6.601-15-15v-30h-60v30c0 8.399-6.599 15-15 15s-15-6.601-15-15v-30h-76c-8.401 0-15 6.599-15 15v452c0 8.399 6.599 15 15 15zm241-391h60c8.401 0 15 6.599 15 15 0 8.399-6.599 15-15 15h-60c-8.401 0-15-6.601-15-15 0-8.401 6.599-15 15-15zm0 60h60c8.401 0 15 6.599 15 15 0 8.399-6.599 15-15 15h-60c-8.401 0-15-6.601-15-15 0-8.401 6.599-15 15-15zm-120-60c41.4 0 75 33.6 75 75s-33.6 75-75 75-75-33.6-75-75 33.6-75 75-75z"/><circle cx="391" cy="391" r="45"/><path d="m497 271h-211c-8.291 0-15 6.709-15 15v150c0 41.353 33.633 76 75 76h90c41.367 0 76-34.647 76-76v-150c0-8.291-6.709-15-15-15zm-106 195c-41.367 0-75-33.647-75-75s33.633-75 75-75 75 33.647 75 75-33.633 75-75 75z"/></g></svg>